<?xml version="1.0" standalone="no"?>
<!DOCTYPE svg PUBLIC "-//W3C//DTD SVG 20010904//EN"
 "http://www.w3.org/TR/2001/REC-SVG-20010904/DTD/svg10.dtd">
<svg version="1.0" xmlns="http://www.w3.org/2000/svg"
 width="160.000000pt" height="160.000000pt" viewBox="0 0 160.000000 160.000000"
 preserveAspectRatio="xMidYMid meet">
<metadata>
Created by potrace 1.14, written by Peter Selinger 2001-2017
</metadata>
<g transform="translate(0.000000,160.000000) scale(0.100000,-0.100000)"
fill="#000000" stroke="none">
<path d="M296 1574 c-26 -26 -30 -39 -27 -79 2 -23 55 -75 76 -75 8 0 15 -8
16 -17 0 -10 2 -31 4 -48 31 -238 50 -276 229 -443 94 -88 94 -134 -1 -224
-114 -108 -144 -143 -169 -196 -14 -30 -27 -64 -30 -76 -2 -11 -6 -32 -9 -46
-10 -48 -13 -67 -19 -125 -7 -63 -13 -78 -26 -70 -14 8 -67 -43 -72 -69 -7
-34 18 -81 48 -95 17 -8 164 -11 485 -11 511 0 511 0 527 63 5 17 7 40 4 50
-5 21 -61 69 -72 62 -13 -8 -18 7 -25 71 -7 70 -10 85 -25 144 -6 25 -12 50
-13 55 -2 6 -13 30 -25 55 -23 49 -56 86 -142 165 -123 111 -125 158 -12 259
117 104 175 186 188 265 3 14 9 42 14 61 5 19 11 64 14 98 5 63 9 76 27 78 5
1 13 2 19 3 40 5 65 95 37 132 -29 38 -44 39 -525 39 l-469 0 -27 -26z"/>
</g>
</svg>
